<svg id="Calque_1" data-name="Calque 1" xmlns="http://www.w3.org/2000/svg" xmlns:xlink="http://www.w3.org/1999/xlink" viewBox="0 0 41.74 67.52"><defs><style>.cls-1{fill:url(#Dégradé_sans_nom_22);}</style><linearGradient id="Dégradé_sans_nom_22" x1="19.31" y1="50.76" x2="61.05" y2="50.76" gradientUnits="userSpaceOnUse"><stop offset="0" stop-color="#09be0d"/><stop offset="0.61" stop-color="#09a70d"/><stop offset="1" stop-color="#09960d"/></linearGradient></defs><title>picto_plante</title><path class="cls-1" d="M54,39.55c-.3-.4-.67-.75-.95-1.15-4.18-6-8.58-11.86-11-18.86C41.55,18,41,16.67,39,17.07v.16a.43.43,0,0,1,0-.16C30.24,24.34,23.9,33,20.6,43.94c-3,9.93-.9,18.78,7.36,24.93,4.86,3.63,9.31,7,10.7,12.75a5.76,5.76,0,0,0,.43,2.9A3,3,0,0,0,41,82.1c-.26-5,2.56-7.93,6.52-10.31C63.36,62.3,65,54.23,54,39.55Z" transform="translate(-19.31 -17)"/></svg>