<svg id="Calque_1" data-name="Calque 1" xmlns="http://www.w3.org/2000/svg" xmlns:xlink="http://www.w3.org/1999/xlink" viewBox="0 0 49.83 46.83"><defs><style>.cls-1{fill:url(#Dégradé_sans_nom_4);}</style><linearGradient id="Dégradé_sans_nom_4" x1="29.85" y1="43.45" x2="79.68" y2="43.45" gradientUnits="userSpaceOnUse"><stop offset="0" stop-color="#e90068"/><stop offset="0.3" stop-color="#e60068"/><stop offset="0.54" stop-color="#dc0068"/><stop offset="0.74" stop-color="#cc0068"/><stop offset="0.94" stop-color="#b50068"/><stop offset="1" stop-color="#ac0068"/></linearGradient></defs><title>picto_fee</title><path class="cls-1" d="M71.46,54.69c2.5-.2,5.2.76,8.22-1.3-2.86-1.7-5.14-3.32-7.63-4.49-4.52-2.12-5.17-5.25-2.84-9.31,2.65-4.62,5.44-9.16,8.08-13.79,1-1.74,2.57-3.35,2.25-5.53a4.14,4.14,0,0,0-3.7.63,59,59,0,0,0-5.67,3.44A136.3,136.3,0,0,0,55,37c-4.52-3.31-8.49-7.31-13-10.68a44.51,44.51,0,0,0-4.66-3.12C35.12,22,32.26,18.86,30.5,20.5c-2,1.91,1.25,4.55,2.43,6.74,2,3.8,4.52,7.38,6.52,11.2,3.35,6.4,2.91,7.49-3.21,11.05-2.09,1.21-4.66,1.81-6.06,4.23,1.24,1.38,2.82.93,4.23,1,7.38.18,7.32.14,3.79,6.89-.77,1.48-2.48,2.79-1.64,4.93,2.31-.38,4-1.85,5.8-2.91,5.17-2.94,8.24-8.1,12.6-11.9,4.8,6.08,9.82,11.88,18.85,15.16l-4.43-8.62C68.22,56,68.88,54.9,71.46,54.69Z" transform="translate(-29.85 -20.03)"/></svg>