<svg id="Calque_1" data-name="Calque 1" xmlns="http://www.w3.org/2000/svg" xmlns:xlink="http://www.w3.org/1999/xlink" viewBox="0 0 40.24 52.7"><defs><style>.cls-1{fill:url(#Dégradé_sans_nom_25);}</style><linearGradient id="Dégradé_sans_nom_25" x1="9.97" y1="36.47" x2="50.21" y2="36.47" gradientUnits="userSpaceOnUse"><stop offset="0" stop-color="#3b74e2"/><stop offset="0.45" stop-color="#3b5de2"/><stop offset="1" stop-color="#3b3be2"/></linearGradient></defs><title>picto_eau</title><path class="cls-1" d="M47.44,13c1-.77,2.59-.9,2.77-2.84-7.47-.54-13.59,3.45-20.2,5.56C21.1,20.2,14.44,26.46,11.26,36.27,6.58,50.73,15.1,62.68,29.88,62.76c0,.05,0,.12.05,0a56,56,0,0,0,6-.5,14.69,14.69,0,0,0,6.2-2.86c8.37-6.63,9.42-16.21,2.78-25C38.49,26,39.27,19.69,47.44,13ZM36.21,38.16c-1.33,0-2.42-1.81-2.42-4s1.09-4.05,2.42-4.05,2.43,1.81,2.43,4.05S37.55,38.16,36.21,38.16Z" transform="translate(-9.97 -10.12)"/></svg>