<svg id="Calque_1" data-name="Calque 1" xmlns="http://www.w3.org/2000/svg" xmlns:xlink="http://www.w3.org/1999/xlink" viewBox="0 0 63.21 66.57"><defs><style>.cls-1{fill:url(#Dégradé_sans_nom_29);}</style><linearGradient id="Dégradé_sans_nom_29" x1="5.33" y1="44.16" x2="68.54" y2="44.16" gradientUnits="userSpaceOnUse"><stop offset="0" stop-color="#f90"/><stop offset="0.64" stop-color="#ff8200"/><stop offset="1" stop-color="#ff7300"/></linearGradient></defs><title>picto_feu</title><path class="cls-1" d="M56.93,53.63c4.74-4.2,6.54-8.87,6.28-14.28-.08-1.72.83-4.16-1.18-4.92-1.65-.62-2.5,1.78-3.83,2.69s-2.6,2.07-4,2.93c-1.95,1.18-4,3.45-6.18,2.47s-.78-3.88-.87-5.9a54.65,54.65,0,0,0-.69-6.9C45.29,23,42.52,17.12,36.16,12.84c-1.18-.95-2.57-2.05-3.94-2a2.37,2.37,0,0,0-1.35.54c-1.46,1.13.24,3.05.68,4.54a7.71,7.71,0,0,1-3.29,9.18c-5.36,3.62-9.8,7.79-11,15.24-4.26-4.5,2-8.92-1.14-12.9C12.89,32,9.42,36,7.72,41.18,5.94,46.62,9.94,51.25,9.88,56.25,7.66,57.31,7.35,54,5.33,54.79c.91,3.55,2.52,6.48,5.63,8.09a24.6,24.6,0,0,1,8.65,8c3.11,4.35,9.27,6.66,15.15,6.52a17.64,17.64,0,0,0,10.4-2.88c.3-.16.62-.34,1-.55a11.7,11.7,0,0,0,3.28-2.28A115.72,115.72,0,0,1,63.5,60c3.21-2.16,5.11-5.48,5-10.37C64.93,51.73,61.93,54.5,56.93,53.63Z" transform="translate(-5.33 -10.88)"/></svg>