<svg id="Calque_1" data-name="Calque 1" xmlns="http://www.w3.org/2000/svg" xmlns:xlink="http://www.w3.org/1999/xlink" viewBox="0 0 48.43 51.65"><defs><style>.cls-1{fill:url(#Dégradé_sans_nom_73);}</style><linearGradient id="Dégradé_sans_nom_73" x1="31.35" y1="43.64" x2="79.78" y2="43.64" gradientUnits="userSpaceOnUse"><stop offset="0" stop-color="#678d00"/><stop offset="0.3" stop-color="#648d00"/><stop offset="0.53" stop-color="#5a8d00"/><stop offset="0.74" stop-color="#4a8d00"/><stop offset="0.93" stop-color="#338d00"/><stop offset="1" stop-color="#298d00"/></linearGradient></defs><title>picto_insecte</title><path class="cls-1" d="M76.9,43.82c-4.12-.7-4.07-4.24-5.36-6.85-.88-1.8-1.24-3.53,1.87-2.37,1.65.61,3.16-.11,2.34-1.69-1.09-2.12-2.47-5.34-6-3.06C68.09,31,66.14,32,65,30.12c-1.65-2.89-2.48-6.25-3.64-9.41a.9.9,0,0,1,.38-.17c1.2.05,2.75.29,1.5-1.67a2,2,0,0,0-3.05-.54,6.92,6.92,0,0,1-4.53,1.75,1.28,1.28,0,0,1-.63-.38c-1.91.84-3.09-.5-4.43-1.45a1.9,1.9,0,0,0-2.66.46,4.2,4.2,0,0,0-.6,1.28c5.86,1.69.14,3.74,0,5.51-.32,4.68-1.71,8.16-7.25,3.83-1.43-1.12-2.63.77-3.67,1.77-.83.79-1.89,1.71-1.1,3s2,.26,3,.06c2.33-.44,2,1.12,1.39,2.35-1.45,2.88-1.59,6.65-5.85,7.64-1.2.27-3.2,1.84-2.46,3.78s2.16.56,3.33.1,2.29,0,2.24,1.12c-.14,2.9,4.4,6.14-.9,8.82-1.72.87-1.45,3.93-.07,5.4,1.66,1.77,2.17-.13,3-1.49,1.29-2.17,2.4-.58,3.29.61a17.57,17.57,0,0,0,12.66,7,1.69,1.69,0,0,1,.68-.48c5.65.7,9.43-2.43,12.92-6.22,1-1.1,2.23-3.1,3.43-.14.48,1.18,1,2.3,2.44,1.77,1.28-.47,1.34-1.78,1.34-3,0-1.84-.06-3.34-2.17-4.52-2.85-1.58-.21-4-.07-6,.07-1.14.11-2.91,2.09-2.81,1.42.08,3.35,2.28,4-.51C80.14,45.79,78.21,44,76.9,43.82Z" transform="translate(-31.35 -17.82)"/></svg>