<svg id="Calque_1" data-name="Calque 1" xmlns="http://www.w3.org/2000/svg" xmlns:xlink="http://www.w3.org/1999/xlink" viewBox="0 0 54.63 60.03"><defs><style>.cls-1{fill:url(#Dégradé_sans_nom_50);}.cls-2{fill:url(#Dégradé_sans_nom_50-2);}</style><linearGradient id="Dégradé_sans_nom_50" x1="36.49" y1="34.25" x2="74.95" y2="34.25" gradientUnits="userSpaceOnUse"><stop offset="0" stop-color="#a400d4"/><stop offset="0.41" stop-color="#a100d4"/><stop offset="0.72" stop-color="#9700d4"/><stop offset="1" stop-color="#8700d4"/></linearGradient><linearGradient id="Dégradé_sans_nom_50-2" x1="28.38" y1="63.98" x2="83.01" y2="63.98" xlink:href="#Dégradé_sans_nom_50"/></defs><title>picto_poison</title><path class="cls-1" d="M53,13.49a12.07,12.07,0,0,1,5.91.14c10.85,3,16.62,10.18,16,20.16-.44,7.11-6.13,15.3-12.84,19.61a11.67,11.67,0,0,1-12.21.36C42.52,49.45,36.4,40.26,36.49,32.3,36.59,22.68,42.66,15.85,53,13.49Zm-8.11,17a11.81,11.81,0,0,0,0,2.45c.27,2.69.62,5.62,4,5.6s3.92-3.71,3.9-6.54-.25-6.83-4.1-6.83C45.62,25.2,45.18,27.94,44.89,30.51Zm13.89,0a12.61,12.61,0,0,0,0,2.88c.33,2.61.83,5.32,4.12,5.23s3.89-3.74,3.9-6.57c0-3-.26-6.85-4-6.93C59.52,25.07,59.08,27.87,58.78,30.53Z" transform="translate(-28.38 -13.19)"/><path class="cls-2" d="M56.14,60.78c7.07-1.79,14.14-3.63,21.23-5.36,2-.49,4.62-1.74,5.47,1.29s-2,3.33-4,3.91c-3.33,1-6.7,1.82-11,3,4,2.49,7.76,2.69,11.21,3.81,2,.66,4.77,1,3.82,4-.82,2.58-3.25,1.7-5.16,1.22C70.43,70.87,63.2,69,56,67.18L35.37,72.3c-1.13.27-2.24.61-3.38.83-1.65.31-3.07-.14-3.51-1.9s.58-2.85,2.21-3.33c3.74-1.09,7.5-2.12,12.31-3.48-4-2.63-7.69-2.82-11-3.89-1.95-.63-4.21-1.22-3.45-3.87s3.07-1.94,5-1.49C41.11,57,48.42,59.69,56.14,60.78Z" transform="translate(-28.38 -13.19)"/></svg>