<svg id="Calque_1" data-name="Calque 1" xmlns="http://www.w3.org/2000/svg" xmlns:xlink="http://www.w3.org/1999/xlink" viewBox="0 0 78.25 58.16"><defs><style>.cls-1{fill:url(#Dégradé_sans_nom_82);}.cls-2{fill:url(#Dégradé_sans_nom_82-2);}.cls-3{fill:url(#Dégradé_sans_nom_82-3);}</style><linearGradient id="Dégradé_sans_nom_82" x1="10.45" y1="40.84" x2="85.35" y2="40.84" gradientUnits="userSpaceOnUse"><stop offset="0" stop-color="#5f00ff"/><stop offset="0.29" stop-color="#5f00fc"/><stop offset="0.52" stop-color="#5f00f2"/><stop offset="0.72" stop-color="#5f00e2"/><stop offset="0.9" stop-color="#5f00cb"/><stop offset="1" stop-color="#5f00bc"/></linearGradient><linearGradient id="Dégradé_sans_nom_82-2" x1="51.12" y1="69.47" x2="60.77" y2="69.47" xlink:href="#Dégradé_sans_nom_82"/><linearGradient id="Dégradé_sans_nom_82-3" x1="83.05" y1="62.88" x2="88.7" y2="62.88" xlink:href="#Dégradé_sans_nom_82"/></defs><title>picto_spectre</title><path class="cls-1" d="M49.07,14.62c4.08.65,8.25.43,12.31,1.52,15.35,4.12,25.71,18.64,23.72,33.5C84,58.13,78.53,65.17,71.89,66.73S58,64.5,53.15,57.09q-1.5-2.27-3-4.55c-.44-.87-.87-1.75-1.32-2.62-9.4-18.09-26-13.1-34.45-1.79a20.81,20.81,0,0,1-4,4.24C10.72,40,16.12,30.27,26,23,32.81,17.9,40.69,15.53,49.07,14.62ZM65.34,62.1c1.81-.11,4-.54,4.3-3.3s-6.65-9.36-10-9.48c-3.21-.11-3.76,2.26-3.85,4.7C55.58,58.19,60.06,62.08,65.34,62.1Zm8.34-7.43c.26,2-.33,5,2.32,4.81,3.58-.21,5.14-3.25,5.38-6.63.17-2.51-.86-5.11-3.63-4.89C73.79,48.27,74.28,52.05,73.68,54.67Z" transform="translate(-10.45 -14.62)"/><path class="cls-2" d="M57.22,72.63c-1.54-.91-5.23,1.05-6-2.17-.6-2.51,1.74-4.19,4.38-4.3,3-.13,4.57,1.79,5.1,4.47C61.14,72.9,59.51,73,57.22,72.63Z" transform="translate(-10.45 -14.62)"/><path class="cls-3" d="M85.63,59.92c2.26.6,3.12,2.22,3.07,4.39,0,.8-.65,2-1.43,1.35-1.44-1.12-4.16-.85-4.22-3.45C83,60.67,84.06,59.91,85.63,59.92Z" transform="translate(-10.45 -14.62)"/></svg>