<svg id="Calque_1" data-name="Calque 1" xmlns="http://www.w3.org/2000/svg" xmlns:xlink="http://www.w3.org/1999/xlink" viewBox="0 0 63.97 67.65"><defs><style>.cls-1{fill:url(#Dégradé_sans_nom_86);}</style><linearGradient id="Dégradé_sans_nom_86" x1="9.45" y1="44.18" x2="73.42" y2="44.18" gradientUnits="userSpaceOnUse"><stop offset="0" stop-color="#be00bf"/><stop offset="0.27" stop-color="#be00bc"/><stop offset="0.48" stop-color="#be00b2"/><stop offset="0.67" stop-color="#be00a2"/><stop offset="0.85" stop-color="#be008b"/><stop offset="1" stop-color="#be0070"/></linearGradient></defs><title>picto_dragon</title><path class="cls-1" d="M68,23.82C60.72,13.41,50.83,8.72,38,10.86c-3.82,1.13-8.85,2-12.57,7.1,4.93-1,8.77-1.48,12.63-.86,8,.65,14.59,3.64,17.12,11.9,2.46,8.07-.4,15-5.86,21-1.7,1.86-3.91,3.59-6.55,2.49-2.44-1-2.53-3.76-2.71-6-.24-3.14-.13-6.3-.17-9.45,0-.32-.81-.19-1.22,0-.58.24-1.43.3-1.69.73C30.67,48,21.84,55.72,12.56,63.11c-4.74,3.77-4,7.73,1.72,10.14A60.12,60.12,0,0,0,38.07,78h.61A32.17,32.17,0,0,0,47,76.66C69.57,70.9,80.91,42.42,68,23.82ZM25.86,67.19c2.92-3.82,6.5-6.59,10.12-9.31C36.6,65.88,33.72,68.67,25.86,67.19Zm10.2-9.44h0l.38-.3Z" transform="translate(-9.45 -10.35)"/></svg>