<svg id="Calque_1" data-name="Calque 1" xmlns="http://www.w3.org/2000/svg" viewBox="0 0 172.5 172.5"><defs><style>.cls-1{fill:#fff;}.cls-2{fill:#ed1c24;}.cls-3{fill:#e6e6e6;}.cls-4{fill:none;stroke:#000;stroke-miterlimit:10;stroke-width:8px;}</style></defs><title>pokeÌball 4</title><polygon class="cls-1" points="112.5 89 165.5 89 168.5 90 159.49 125.21 145.75 144.53 127.27 159.06 102 168.49 78.46 170 58.42 165.17 37.41 153.93 23.57 141 10.36 119.5 4.37 100 4 87.75 24.5 87 60.5 87 66.5 97.16 74.5 106.44 86.5 110 97.5 107.05 106.37 97.44 112.5 89"/><polygon class="cls-2" points="60 85 7 85 4 84 13.01 48.79 26.75 29.47 45.23 14.94 70.5 5.51 94.04 4 114.08 8.83 135.09 20.07 148.93 33 162.14 54.49 168.13 74 168.5 86.25 148 87 112 87 106 76.84 98 67.56 86 64 75 66.95 66.13 76.56 60 85"/><path class="cls-3" d="M155.75,93.46s4.84,38.75-25.46,63c0,0,32.67-8.79,38.59-63.18Z" transform="translate(-10 -8)"/><path class="cls-3" d="M155.55,98.57s5.09-38.71-25.06-63.19c0,0,32.61,9,38.19,63.43Z" transform="translate(-10 -8)"/><circle class="cls-4" cx="86.25" cy="86.25" r="82.25"/><circle cx="86" cy="86" r="12"/><circle class="cls-4" cx="86" cy="86" r="22"/><polygon points="65 84 4 84 4.27 90.95 66.13 90.95 65 84"/><polygon points="167 84 106 84 106.27 90.95 168.13 90.95 167 84"/></svg>