<svg id="Calque_1" data-name="Calque 1" xmlns="http://www.w3.org/2000/svg" xmlns:xlink="http://www.w3.org/1999/xlink" viewBox="0 0 57.16 59.86"><defs><style>.cls-1{fill:url(#Dégradé_sans_nom_61);}</style><linearGradient id="Dégradé_sans_nom_61" x1="26.66" y1="43.32" x2="83.81" y2="43.32" gradientUnits="userSpaceOnUse"><stop offset="0" stop-color="#ef94ff"/><stop offset="0.3" stop-color="#ef91ff"/><stop offset="0.52" stop-color="#ef87ff"/><stop offset="0.73" stop-color="#ef77ff"/><stop offset="0.91" stop-color="#ef60ff"/><stop offset="1" stop-color="#ef53ff"/></linearGradient></defs><title>picto_vol</title><path class="cls-1" d="M56,28.33c6.37-4.21,12.67-8.53,19.15-12.57,2.14-1.34,5.17-3.68,7.2-1.44s-.88,4.84-2.28,6.92c-2.59,3.86-5.4,7.58-8.26,11.25-2.75,3.52-1.6,5.3,2.39,6.07,2.29.45,4.57.89,6.84,1.41,1.07.24,2.64.18,2.7,1.62s-1.49,1.65-2.49,2.12c-2.41,1.13-4.9,2.08-7.3,3.21-2.59,1.22-2.74,2.77-.25,4.26S79,54.06,81.53,55.6c1.08.64,2.75,1.3,2.16,2.88-.42,1.12-2,1-3.16.9-3.16-.17-6.31-.35-9.46-.63s-4.85.75-3.79,4.25a9.35,9.35,0,0,1,.37,1.45c.22,1.77,1.21,3.91-.39,5.18s-3.45-.26-5.05-1c-2.09-1-4.12-2.15-6.17-3.23-2-1.27-3.17-.47-4.42,1.38-4.59,6.8-11,8.3-17.86,4.39A14.19,14.19,0,0,1,28.1,52.56c2.06-4.33,5.67-7.28,9.36-10.11C43.62,37.71,49.83,33,56,28.33Z" transform="translate(-26.66 -13.39)"/></svg>