<svg id="Calque_1" data-name="Calque 1" xmlns="http://www.w3.org/2000/svg" xmlns:xlink="http://www.w3.org/1999/xlink" viewBox="0 0 57.89 76.4"><defs><style>.cls-1{fill:url(#Dégradé_sans_nom_55);}.cls-2{fill:url(#Dégradé_sans_nom_55-2);}.cls-3{fill:url(#Dégradé_sans_nom_55-3);}.cls-4{fill:url(#Dégradé_sans_nom_55-4);}.cls-5{fill:url(#Dégradé_sans_nom_55-5);}.cls-6{fill:url(#Dégradé_sans_nom_55-6);}.cls-7{fill:url(#Dégradé_sans_nom_55-7);}</style><linearGradient id="Dégradé_sans_nom_55" x1="1.2" y1="14.4" x2="27.6" y2="14.4" gradientUnits="userSpaceOnUse"><stop offset="0" stop-color="#bfa526"/><stop offset="0.37" stop-color="#bfa323"/><stop offset="0.65" stop-color="#bf9e19"/><stop offset="0.9" stop-color="#bf9409"/><stop offset="1" stop-color="#bf8f00"/></linearGradient><linearGradient id="Dégradé_sans_nom_55-2" x1="1.2" y1="62" x2="28.07" y2="62" xlink:href="#Dégradé_sans_nom_55"/><linearGradient id="Dégradé_sans_nom_55-3" x1="30.68" y1="62" x2="57.08" y2="62" xlink:href="#Dégradé_sans_nom_55"/><linearGradient id="Dégradé_sans_nom_55-4" x1="30.68" y1="14.4" x2="57.08" y2="14.4" xlink:href="#Dégradé_sans_nom_55"/><linearGradient id="Dégradé_sans_nom_55-5" x1="0" y1="38.18" x2="15.67" y2="38.18" xlink:href="#Dégradé_sans_nom_55"/><linearGradient id="Dégradé_sans_nom_55-6" x1="42.22" y1="38.1" x2="57.89" y2="38.1" xlink:href="#Dégradé_sans_nom_55"/><linearGradient id="Dégradé_sans_nom_55-7" x1="18.48" y1="38.1" x2="39.59" y2="38.1" xlink:href="#Dégradé_sans_nom_55"/></defs><title>picto_sol</title><polygon class="cls-1" points="1.2 17.52 27.6 0 27.6 21.41 17.28 28.8 1.2 17.52"/><polygon class="cls-2" points="1.2 58.88 27.6 76.4 28.07 55.08 17.28 47.6 1.2 58.88"/><polygon class="cls-3" points="57.08 58.88 30.68 76.4 30.68 55.18 41 47.6 57.08 58.88"/><polygon class="cls-4" points="57.08 17.52 30.68 0 30.68 21.41 41 28.8 57.08 17.52"/><polygon class="cls-5" points="0 20.2 0 56.16 15.67 45.71 15.67 30.76 0 20.2"/><polygon class="cls-6" points="57.88 20.04 57.88 56.16 42.22 45.71 42.22 30.75 57.88 20.04"/><polygon class="cls-7" points="18.48 30.9 28.95 23.49 39.59 30.9 39.59 45.88 29.03 52.7 18.48 45.46 18.48 30.9"/></svg>