<svg id="Calque_1" data-name="Calque 1" xmlns="http://www.w3.org/2000/svg" xmlns:xlink="http://www.w3.org/1999/xlink" viewBox="0 0 76.47 48.44"><defs><style>.cls-1{fill:url(#Dégradé_sans_nom_66);}.cls-2{fill:url(#Dégradé_sans_nom_66-2);}</style><linearGradient id="Dégradé_sans_nom_66" x1="17.45" y1="43.55" x2="93.92" y2="43.55" gradientUnits="userSpaceOnUse"><stop offset="0" stop-color="#ff3fda"/><stop offset="0.3" stop-color="#ff3cd9"/><stop offset="0.53" stop-color="#ff32d4"/><stop offset="0.74" stop-color="#ff22cd"/><stop offset="0.93" stop-color="#ff0bc2"/><stop offset="1" stop-color="#ff00bd"/></linearGradient><linearGradient id="Dégradé_sans_nom_66-2" x1="44.97" y1="43.54" x2="66.15" y2="43.54" xlink:href="#Dégradé_sans_nom_66"/></defs><title>picto_psy</title><path class="cls-1" d="M92.74,40.56C83.66,28,72,19.82,55.91,19.39c-12.81-.93-32,10.1-37.79,21.57a5.28,5.28,0,0,0,0,5.18c5.78,11.55,24.73,22.41,37.79,21.59L56,62c-11.87-.57-20.91-6.42-28.44-15.14-2.4-2.78-1.29-5.17.76-7.48C35.69,31,44.65,25.9,56,25.48c10.48.64,19,5.34,26,12.88,4.06,4.35,3.93,6-.08,10.5C75,56.68,66.16,60.62,56,62c0,1.93,0,3.85-.07,5.78,16.41-.28,28-8.9,37.17-21.6C94.48,44.21,94,42.25,92.74,40.56Z" transform="translate(-17.45 -19.33)"/><path class="cls-2" d="M66.14,44.06a11.38,11.38,0,0,0-1.29-6.12C63.28,35.2,60.3,33.6,56,33.16a11.1,11.1,0,0,0-9.15,4.38A10.17,10.17,0,0,0,45,43.33c-.11,6.38,4.13,10.47,11,10.6C62.31,53.51,66,50,66.14,44.06Z" transform="translate(-17.45 -19.33)"/></svg>