<svg id="Calque_1" data-name="Calque 1" xmlns="http://www.w3.org/2000/svg" xmlns:xlink="http://www.w3.org/1999/xlink" viewBox="0 0 86.51 61.49"><defs><style>.cls-1{fill:url(#Dégradé_sans_nom_76);}.cls-2{fill:url(#Dégradé_sans_nom_76-2);}.cls-3{fill:url(#Dégradé_sans_nom_76-3);}.cls-4{fill:url(#Dégradé_sans_nom_76-4);}</style><linearGradient id="Dégradé_sans_nom_76" y1="46.76" x2="28.99" y2="46.76" gradientUnits="userSpaceOnUse"><stop offset="0" stop-color="#7f4e00"/><stop offset="0.41" stop-color="#7f4b00"/><stop offset="0.73" stop-color="#7f4100"/><stop offset="1" stop-color="#7f3200"/></linearGradient><linearGradient id="Dégradé_sans_nom_76-2" x1="24.78" y1="30.74" x2="61.26" y2="30.74" xlink:href="#Dégradé_sans_nom_76"/><linearGradient id="Dégradé_sans_nom_76-3" x1="57.69" y1="48.86" x2="76.22" y2="48.86" xlink:href="#Dégradé_sans_nom_76"/><linearGradient id="Dégradé_sans_nom_76-4" x1="77.26" y1="58.73" x2="86.51" y2="58.73" xlink:href="#Dégradé_sans_nom_76"/></defs><title>picto_roche</title><polygon class="cls-1" points="0 61.49 22.45 61.49 28.99 46.76 21.91 32.03 15.43 32.03 14.49 41.15 10.29 41.38 0 61.49"/><polygon class="cls-2" points="27.12 61.49 59.62 61.49 54.71 47.93 61.26 35.3 52.14 32.03 52.14 0 40.68 0 40.68 2.81 35.3 2.81 35.3 15.43 24.78 16.37 24.78 32.03 32.03 46.76 27.12 61.49"/><polygon class="cls-3" points="76.22 61.49 62.42 61.49 57.69 47.98 63.83 36.24 71.08 36.24 76.22 61.49"/><polygon class="cls-4" points="77.26 55.98 77.81 59.08 79.67 59.3 79.86 61.49 86.51 61.49 84.29 58.73 84.19 55.98 77.26 55.98"/></svg>