<svg id="Calque_1" data-name="Calque 1" xmlns="http://www.w3.org/2000/svg" xmlns:xlink="http://www.w3.org/1999/xlink" viewBox="0 0 56.03 64.01"><defs><style>.cls-1{fill:url(#Dégradé_sans_nom_42);}</style><linearGradient id="Dégradé_sans_nom_42" x1="13.3" y1="43.54" x2="69.34" y2="43.54" gradientUnits="userSpaceOnUse"><stop offset="0" stop-color="#2ac0ff"/><stop offset="0.34" stop-color="#2abdff"/><stop offset="0.61" stop-color="#2ab3ff"/><stop offset="0.84" stop-color="#2aa3ff"/><stop offset="1" stop-color="#2a93ff"/></linearGradient></defs><title>picto_glace</title><path class="cls-1" d="M41.05,75.53c-2.47-1.08-3.6-4-6.76-4.46-1.72-.28-1.76-3-.25-4.14,6.39-4.76,3.68-11.26,4.21-18.25-5.81,3.68-12.31,4.73-13.4,12.41-.41,2.86-3.28,4-4.9.94s-5.36.36-6.4-3.2c-.7-2.41,3.34-3.36,1-6.56-1.78-2.42,1.48-4,3.63-3.1,6.3,2.62,10.39-1.68,15.09-4.17,2-1.06,1.84-2.06,0-3.09-4.86-2.62-9.23-7.07-15.56-4.07a2,2,0,0,1-1,.07c-1.78-.18-3.37-2.23-2.52-2.79,3.64-2.4-5.47-8.42,2.68-8.87,1.25-.07,1.75,0,2.62-1.19,2.28-3,4.75-2.64,5.31,1.17,1,6.88,7,7.83,11.36,10.78,1.93,1.32,2.18-.35,2.13-1.8-.16-5.32,1.46-11.07-4.14-15-1.49-1-1.56-4,.21-4,3.63-.1,4.35-3.42,6.78-4.64,2.63.94,2.7,5.11,6.86,4.74,1.7-.15,1.35,3.19-.3,4.34-5.87,4.14-3.46,10.2-3.79,15.59-.15,2.59,1.55,2,3,1.17,4.64-2.87,10.53-4.26,11.48-11.24.38-2.8,3.16-4.14,4.7-.81s4.28-.29,5.87,2.11c1.84,2.78-2.48,3.44-1.3,6,1.74,3.86.41,5.43-3.57,4-6.69-2.44-10.53,2.61-15.31,5.1-1.76.92-.14,2,.8,2.47,4.69,2.47,8.69,6.77,15.05,4.24,2.71-1.07,5.52.27,3.09,3.88-1.8,2.68,2.63,3.49,1.08,6.14s-4.33-1.15-5.89,1.95c-1.78,3.55-4.4,2.41-4.85-.95-.95-7.09-7.14-8.12-11.72-11-2.21-1.37-2.51.49-2.44,2.1.23,5.44-1.57,11.25,4.1,15.54,2.19,1.65,1.7,4.73-1.87,4.4S44.08,75.86,41.05,75.53Z" transform="translate(-13.3 -11.53)"/></svg>