<svg id="Calque_1" data-name="Calque 1" xmlns="http://www.w3.org/2000/svg" xmlns:xlink="http://www.w3.org/1999/xlink" viewBox="0 0 48.05 63"><defs><style>.cls-1{fill:url(#Dégradé_sans_nom_45);}.cls-2{fill:url(#Dégradé_sans_nom_45-2);}.cls-3{fill:url(#Dégradé_sans_nom_45-3);}.cls-4{fill:url(#Dégradé_sans_nom_45-4);}.cls-5{fill:url(#Dégradé_sans_nom_45-5);}.cls-6{fill:url(#Dégradé_sans_nom_45-6);}.cls-7{fill:url(#Dégradé_sans_nom_45-7);}</style><linearGradient id="Dégradé_sans_nom_45" x1="57.14" y1="26.22" x2="68" y2="26.22" gradientUnits="userSpaceOnUse"><stop offset="0" stop-color="#e92700"/><stop offset="0.35" stop-color="#e62700"/><stop offset="0.62" stop-color="#dc2700"/><stop offset="0.86" stop-color="#cc2700"/><stop offset="1" stop-color="#be2700"/></linearGradient><linearGradient id="Dégradé_sans_nom_45-2" x1="31.35" y1="49.55" x2="57.05" y2="49.55" xlink:href="#Dégradé_sans_nom_45"/><linearGradient id="Dégradé_sans_nom_45-3" x1="50.36" y1="49.7" x2="79.38" y2="49.7" xlink:href="#Dégradé_sans_nom_45"/><linearGradient id="Dégradé_sans_nom_45-4" x1="44.24" y1="24.35" x2="54.89" y2="24.35" xlink:href="#Dégradé_sans_nom_45"/><linearGradient id="Dégradé_sans_nom_45-5" x1="44.22" y1="68.76" x2="67.94" y2="68.76" xlink:href="#Dégradé_sans_nom_45"/><linearGradient id="Dégradé_sans_nom_45-6" x1="70.03" y1="27.34" x2="79.34" y2="27.34" xlink:href="#Dégradé_sans_nom_45"/><linearGradient id="Dégradé_sans_nom_45-7" x1="31.34" y1="26.14" x2="42.12" y2="26.14" xlink:href="#Dégradé_sans_nom_45"/></defs><title>picto_combat</title><path class="cls-1" d="M57.16,30.69c0,3.58,1.84,5.86,5.29,5.94s5.32-2.37,5.46-5.8c.12-3.15.13-6.3,0-9.44-.16-3.44-1.79-5.67-5.55-5.59-3.51.07-5,2.25-5.16,5.45-.1,1.65,0,3.31,0,5C57.16,27.71,57.17,29.2,57.16,30.69Z" transform="translate(-31.34 -12.01)"/><path class="cls-2" d="M48,53.39c.06-2.81.95-3.88,3.72-3.71a7.36,7.36,0,0,0,2.33-.4A3.21,3.21,0,0,0,55.84,48a6,6,0,0,0-.19-7.47,3.27,3.27,0,0,0-2-1.22c-2.88-.54-5.81-.19-8.71-.23-14.52-.18-13.62-.79-13.54,14,0,5.8,1.14,7,6.41,7.09C47,60.29,47.8,59.88,48,53.39Z" transform="translate(-31.34 -12.01)"/><path class="cls-3" d="M79.38,45.08c.05-4.55-2-6.36-6.36-6.09-1.49.09-3,0-4.48,0-8.41,0-8.56,0-8.66,8.65,0,3.57-.35,4.45-4.89,4.45-2.87-.27-4.62,1.16-4.63,3.91a4.17,4.17,0,0,0,4.79,4.41c3.14-.11,6.28-.3,9.42-.31C81.07,60,79.2,61.88,79.38,45.08ZM55,52.46v0Z" transform="translate(-31.34 -12.01)"/><path class="cls-4" d="M44.26,29.48c0,2.8.42,5.34,3.28,6.67a5.16,5.16,0,0,0,7.29-4.53l.06-14.41a4.81,4.81,0,0,0-1.51-3.53c-1.52-1.41-3.27-2.25-5.69-1.21-3.08,1.34-3.53,4.06-3.44,7.07C44.34,22.85,44.3,26.17,44.26,29.48Z" transform="translate(-31.34 -12.01)"/><path class="cls-5" d="M62.17,62.65c-2,0-5.13,0-7.1,0,0-.11,0-.06,0,0-1.64-.1-4-.07-5.65-.05-4,0-5.18,1.8-5.18,6s1.88,6.16,5.93,6.2c1.63,0,3.4.39,5,.29,2-.08,4-.18,5.93-.23,5.12-.11,6.82-1.66,6.82-6.27S67.31,62.76,62.17,62.65Z" transform="translate(-31.34 -12.01)"/><path class="cls-6" d="M74.77,36.65a4.26,4.26,0,0,0,4.51-4.37c.09-1.66,0-3.33,0-5s.12-3.34,0-5C79,19.57,77.43,18,74.69,18a4.18,4.18,0,0,0-4.53,4.32,87.44,87.44,0,0,0,0,10A4.28,4.28,0,0,0,74.77,36.65Z" transform="translate(-31.34 -12.01)"/><path class="cls-7" d="M36.83,36.62A5,5,0,0,0,42,31.67c.15-1.8,0-3.63,0-5.45s.09-3.65,0-5.46c-.19-3.11-2-5-5-5.11a5,5,0,0,0-5.48,4.71,64.48,64.48,0,0,0,.09,11.87A4.73,4.73,0,0,0,36.83,36.62Z" transform="translate(-31.34 -12.01)"/></svg>