<svg id="Calque_1" data-name="Calque 1" xmlns="http://www.w3.org/2000/svg" xmlns:xlink="http://www.w3.org/1999/xlink" viewBox="0 0 67.51 64.69"><defs><style>.cls-1{fill:url(#Dégradé_sans_nom_104);}.cls-2{fill:url(#Dégradé_sans_nom_104-2);}.cls-3{fill:url(#Dégradé_sans_nom_104-3);}.cls-4{fill:url(#Dégradé_sans_nom_104-4);}</style><linearGradient id="Dégradé_sans_nom_104" x1="24.8" y1="44.33" x2="60.86" y2="44.33" gradientUnits="userSpaceOnUse"><stop offset="0" stop-color="#8d98b7"/><stop offset="0.31" stop-color="#8d97b4"/><stop offset="0.55" stop-color="#8d92aa"/><stop offset="0.76" stop-color="#8d8a9a"/><stop offset="0.96" stop-color="#8d7f83"/><stop offset="1" stop-color="#8d7c7d"/></linearGradient><linearGradient id="Dégradé_sans_nom_104-2" x1="8.46" y1="25.85" x2="30.64" y2="25.85" xlink:href="#Dégradé_sans_nom_104"/><linearGradient id="Dégradé_sans_nom_104-3" x1="55.14" y1="25.94" x2="75.96" y2="25.94" xlink:href="#Dégradé_sans_nom_104"/><linearGradient id="Dégradé_sans_nom_104-4" x1="26.53" y1="68.51" x2="58.45" y2="68.51" xlink:href="#Dégradé_sans_nom_104"/></defs><title>picto_acier</title><path class="cls-1" d="M58,28c-5,.05-10,.07-15,.1l-1.06,0c-3.09-.08-5.37-.15-8.11-.17C23,27.82,23,28,28.25,37.52,32.09,44.46,35,49.6,39.15,56.38a21.6,21.6,0,0,0,1.69,3.24c.52,1.14,1.31,2,2.61-.3.07-.13.15-.27.22-.42,6.55-8.61,11-18.45,16.58-27.66C61.72,28.8,60.35,28,58,28Z" transform="translate(-8.46 -11)"/><path class="cls-2" d="M26.26,18.18a3.83,3.83,0,0,0,1.24-.82c1.1-1,3.89-.91,2.95-3.16-.85-2-3.16-2.78-5.2-3.2a10.83,10.83,0,0,0-1.13.14c-10.83,2.48-18,14.64-15,25.47a5.54,5.54,0,0,0,5.6,4.09c2.41-.16,1.52-3.06,1.31-4.6C14.9,27.45,17.51,21.13,26.26,18.18Z" transform="translate(-8.46 -11)"/><path class="cls-3" d="M75.88,30.5c.07-9.83-5.24-16.86-14.64-19.1a5.25,5.25,0,0,0-5.87,2.77c-1,2,1.41,2.78,2.83,3.33,8.79,3.38,12.66,9.42,11,18.92-.26,1.42-1.16,4.27,1.71,4.2a4.92,4.92,0,0,0,5-4.15A41,41,0,0,0,75.88,30.5Z" transform="translate(-8.46 -11)"/><path class="cls-4" d="M53.39,63.46c-.9.42-1.78.86-2.66,1.32-2.63,1.38-5.18,2.91-7.78,4.35-3.56-1.22-6.67-3.3-9.87-5.19-1.07-.63-2.15-1.24-3.26-1.79s-2.35-1.65-2.72.16c-.45,2.19-1.31,5.3.71,6.57,4.65,2.91,8.88,7.08,15,6.79,5.47-.21,9.5-3.69,13.82-6.34,2.5-1.53,1.94-5,1-6.86C56.43,59.91,54.7,62.85,53.39,63.46Z" transform="translate(-8.46 -11)"/></svg>