<svg id="Calque_1" data-name="Calque 1" xmlns="http://www.w3.org/2000/svg" viewBox="0 0 177 174"><defs><style>.cls-1{fill:gray;}.cls-2{fill:#e6e6e6;}</style></defs><title>pokéball1</title><polygon class="cls-1" points="77 4 66 8 44 19 33 30 22 41 11 64 10 75 26 77 39 75 39 67 44 64 48 60 65 60 72 60 80 67 83 75 92 79 168 77 168 66 159 58 158 47 152 36 138 24 127 13 113 9 108 6 77 4"/><polygon class="cls-2" points="6 79 11 108 18 124 26 136 44 153 66 164 88 171 111 164 133 153 144 142 155 131 166 108 172 86 150 80 92 79 82 75 77 64 66 59 44 64 39 75 29 80 6 79"/><rect x="66" width="45" height="8"/><rect y="64" width="11" height="44"/><rect x="166" y="64" width="11" height="44"/><rect x="66" y="164" width="45" height="10"/><rect x="44" y="8" width="22" height="11"/><rect x="33" y="19" width="11" height="11"/><rect x="22" y="30" width="11" height="11"/><rect x="11" y="41" width="11" height="23"/><rect x="116.4" y="13.34" width="22" height="11" transform="translate(249.4 32.34) rotate(-180)"/><rect x="138.4" y="24.34" width="11" height="11" transform="translate(282.4 54.34) rotate(-180)"/><rect x="149.4" y="35.34" width="11" height="11" transform="translate(304.4 76.34) rotate(-180)"/><rect x="160.4" y="46.34" width="11" height="23" transform="translate(326.4 110.34) rotate(-180)"/><rect x="116.4" y="158.34" width="22" height="11" transform="translate(249.4 322.34) rotate(180)"/><rect x="138.4" y="147.34" width="11" height="11" transform="translate(282.4 300.34) rotate(180)"/><rect x="149.4" y="136.34" width="11" height="11" transform="translate(304.4 278.34) rotate(180)"/><rect x="160.4" y="113.34" width="11" height="23" transform="translate(326.4 244.34) rotate(180)"/><rect x="44" y="153" width="22" height="11"/><rect x="33" y="142" width="11" height="11"/><rect x="22" y="131" width="11" height="11"/><rect x="11" y="108" width="11" height="23"/><rect x="86" y="75" width="80" height="11"/><rect x="10" y="75" width="24" height="11"/><rect x="77" y="64" width="10" height="33"/><rect x="34" y="64" width="10" height="33"/><rect x="60.9" y="47.84" width="10" height="33" transform="translate(-3.84 124.9) rotate(-90)"/><rect x="60.9" y="90.84" width="10" height="33" transform="translate(-46.84 167.9) rotate(-90)"/></svg>