<svg id="Calque_1" data-name="Calque 1" xmlns="http://www.w3.org/2000/svg" viewBox="0 0 150 150"><defs><style>.cls-1{fill:#ed1c25;}.cls-2{fill:#fff;}.cls-3{fill:#e6e6e6;}.cls-4{fill:#b3b3b3;}.cls-5{fill:gray;}.cls-6,.cls-7,.cls-8{fill:none;stroke:#000;stroke-miterlimit:10;}.cls-6{stroke-width:2.5px;}.cls-7{stroke-width:0.75px;}</style></defs><title>pokéball 3</title><path class="cls-1" d="M105.29,46.72a1.5,1.5,0,0,0,0-3,1.5,1.5,0,0,0,0,3Z" transform="translate(-21.65 -18.59)"/><path class="cls-1" d="M81.48,65.58c.53-.37,4.38-3.3,4.92-2.95l-2.39,1c.9-.35,1.8-.66,2.72-.94,1.15-.34,3.15-.46,4.2-1q-4.83.57-1.3.29c1,0,1.91,0,2.87,0,11,.23,21.5-9.82,21-21-.52-11.57-9.22-20.75-21-21a55.59,55.59,0,0,0-32.22,9.36c-9,6.22-14,18.7-7.54,28.73,5.79,9,19.06,14.2,28.74,7.53Z" transform="translate(-21.65 -18.59)"/><path class="cls-1" d="M104.44,61.94c11,0,21.51-9.66,21-21s-9.22-21-21-21c-11,0-21.5,9.66-21,21s9.23,21,21,21Z" transform="translate(-21.65 -18.59)"/><path class="cls-1" d="M87.22,71.66c11,0,21.51-9.66,21-21s-9.22-21-21-21c-11,0-21.5,9.66-21,21s9.23,21,21,21Z" transform="translate(-21.65 -18.59)"/><path class="cls-1" d="M52.44,62.32c15.44,0,15.47-24,0-24s-15.47,24,0,24Z" transform="translate(-21.65 -18.59)"/><path class="cls-1" d="M57,58.23c15.45,0,15.47-24,0-24s-15.46,24,0,24Z" transform="translate(-21.65 -18.59)"/><path class="cls-1" d="M46,72.89c15.44,0,15.47-24,0-24s-15.47,24,0,24Z" transform="translate(-21.65 -18.59)"/><path class="cls-1" d="M46.3,69.48c15.45,0,15.47-24,0-24s-15.47,24,0,24Z" transform="translate(-21.65 -18.59)"/><path class="cls-1" d="M58.07,72.55c15.44,0,15.47-24,0-24s-15.47,24,0,24Z" transform="translate(-21.65 -18.59)"/><path class="cls-1" d="M72.73,73.06c15.44,0,15.47-24,0-24s-15.47,24,0,24Z" transform="translate(-21.65 -18.59)"/><path class="cls-1" d="M65.57,72.55c15.44,0,15.47-24,0-24s-15.47,24,0,24Z" transform="translate(-21.65 -18.59)"/><path class="cls-1" d="M52.44,72.55c15.44,0,15.47-24,0-24s-15.47,24,0,24Z" transform="translate(-21.65 -18.59)"/><path class="cls-1" d="M117.41,59.66c12.6,2.18,18.76,14,24.28,24.72,3,5.77,11.05,7.45,16.42,4.31,5.86-3.43,7.27-10.63,4.31-16.42-8.16-15.91-19.68-32.47-38.63-35.75-6.37-1.11-12.92,1.7-14.76,8.38-1.59,5.78,2,13.65,8.38,14.76Z" transform="translate(-21.65 -18.59)"/><path class="cls-1" d="M114.15,46.69c1.57.1,4.54,2.7,5.82,3.54,2.3,1.51,4.57,3.08,6.72,4.8A113.28,113.28,0,0,1,140.5,68.31c4.32,4.84,12.58,4.4,17,0,4.81-4.81,4.33-12.12,0-17a130.33,130.33,0,0,0-19-17.31c-7.31-5.52-14.94-10.77-24.34-11.34-6.48-.39-12,5.8-12,12,0,6.82,5.5,11.6,12,12Z" transform="translate(-21.65 -18.59)"/><path class="cls-1" d="M109.23,63.71a34.52,34.52,0,0,1,24,6.1c6.38,4.4,12.38-6,6.06-10.36a44.87,44.87,0,0,0-30-7.74c-7.61.78-7.69,12.79,0,12Z" transform="translate(-21.65 -18.59)"/><path class="cls-1" d="M154.09,89.93a10.08,10.08,0,0,0,6.73,6.6,6,6,0,0,0,6.77-8.81A6.61,6.61,0,0,0,164,85l-.29-.11,1.44.61a3.94,3.94,0,0,1-.91-.53l1.21.94a4.77,4.77,0,0,1-.75-.74l.94,1.22a4.6,4.6,0,0,1-.53-.91l.6,1.44-.05-.14a4.58,4.58,0,0,0-1.08-2,4.48,4.48,0,0,0-1.68-1.55,6,6,0,0,0-8.21,2.15,5.85,5.85,0,0,0-.61,4.63Z" transform="translate(-21.65 -18.59)"/><path class="cls-1" d="M169,83c-.77-3.89-1.32-7.91-2.34-11.75-1-3.65-2.82-7.11-4.35-10.55-1.32-3-5.62-3.63-8.21-2.15-3.07,1.74-3.45,5.26-2.15,8.2,2.85,6.43,4.11,12.56,5.47,19.44,1.5,7.57,13.07,4.37,11.58-3.19Z" transform="translate(-21.65 -18.59)"/><path class="cls-1" d="M135.82,70.81c7.72,0,7.73-12,0-12s-7.74,12,0,12Z" transform="translate(-21.65 -18.59)"/><path class="cls-1" d="M151.25,93.69c3.21,1.37,7,2.94,10.54,1.82,3.24-1,6.39-3.12,7.78-6.3L164,87.7c-.18,2.29.18,4.65-.35,6.9-.89,3.75,4.9,5.35,5.79,1.59.66-2.82.34-5.64.56-8.49s-4.41-4.24-5.59-1.52c-1.94,4.44-6.39,3.92-10.11,2.33-3.51-1.5-6.57,3.67-3,5.18Z" transform="translate(-21.65 -18.59)"/><path class="cls-1" d="M164,96.15a34.9,34.9,0,0,1,.26,4.22l3.8-2.89c-1.95-.66-3.4-2.09-5.28-2.86-1.68-.68-3.19-1.72-4.91-2.28-3.69-1.19-5.27,4.6-1.6,5.78a20.46,20.46,0,0,1,2.22,1.27c.83.4,1.74.58,2.53,1a34.77,34.77,0,0,0,5.44,2.86,3,3,0,0,0,3.8-2.89,34.9,34.9,0,0,0-.26-4.22,3.1,3.1,0,0,0-3-3c-1.47,0-3.19,1.39-3,3Z" transform="translate(-21.65 -18.59)"/><path class="cls-1" d="M168,105.57c3.86,0,3.86-6,0-6s-3.87,6,0,6Z" transform="translate(-21.65 -18.59)"/><path class="cls-1" d="M165.39,103.41c3.86,0,3.86-6,0-6s-3.87,6,0,6Z" transform="translate(-21.65 -18.59)"/><path class="cls-1" d="M163.71,102.5c3.86,0,3.86-6,0-6s-3.87,6,0,6Z" transform="translate(-21.65 -18.59)"/><path class="cls-1" d="M162.57,101.76c3.86,0,3.86-6,0-6s-3.87,6,0,6Z" transform="translate(-21.65 -18.59)"/><path class="cls-1" d="M167,104.58c3.86,0,3.87-6,0-6s-3.87,6,0,6Z" transform="translate(-21.65 -18.59)"/><path class="cls-1" d="M167.78,105.72c3.86,0,3.86-6,0-6s-3.87,6,0,6Z" transform="translate(-21.65 -18.59)"/><path class="cls-1" d="M142,89.77c2.27.68,3.74,1.89,5.75,3s3.88,1.56,5.57,3.13l2.91-5a21,21,0,0,1-4.19-2.27c-1.41-.79-3-1.26-4.2-2.42-2.74-2.74-7,1.5-4.24,4.24,1.58,1.58,3.5,2.29,5.41,3.36a26.43,26.43,0,0,0,5.63,2.87c2.83.82,5.12-3,2.92-5s-4.33-2.77-6.78-4.07c-1-.55-1.89-1.38-2.92-2A20.82,20.82,0,0,0,143.63,84c-3.71-1.1-5.29,4.68-1.59,5.78Z" transform="translate(-21.65 -18.59)"/><path class="cls-1" d="M139.08,81.77a24.85,24.85,0,0,0,.91,2.68,3.31,3.31,0,0,0,1.38,1.8,3,3,0,0,0,4.11-1.08,2.89,2.89,0,0,0,.3-2.31,23,23,0,0,1-.91-2.69,3,3,0,0,0-5.79,1.6Z" transform="translate(-21.65 -18.59)"/><path class="cls-1" d="M129.72,67.93c.67.46,1.33.93,2,1.42l.12.09.48.38.94.78a3.07,3.07,0,0,0,4.24,0,3,3,0,0,0,0-4.24,55.83,55.83,0,0,0-4.74-3.61,3,3,0,0,0-4.1,1.08,3.07,3.07,0,0,0,1.08,4.1Z" transform="translate(-21.65 -18.59)"/><path class="cls-1" d="M100,68c1.22-.79,2.46-1.55,3.74-2.24.29-.15,3.38-1.57,2.94-1.83l.72-5.49a44.74,44.74,0,0,0-12.54,7c-1.26.94-2.46,2.11-3.56,3.09-1.28,1.14-1.93,2.17-1.5,4,.9,3.76,6.68,2.17,5.79-1.59l-.07-.31-.31,2.32.19-.29L93.59,74c2.46-1,3.82-3.1,6-4.61a36.8,36.8,0,0,1,9.4-5.15,3,3,0,0,0,.72-5.48C105.9,56.41,100,60.8,97,62.8s-.23,7.29,3,5.18Z" transform="translate(-21.65 -18.59)"/><path class="cls-1" d="M78.53,73.29a73.69,73.69,0,0,1,10.37,1.1c3.77.69,5.39-5.09,1.59-5.78a82.72,82.72,0,0,0-12-1.32c-3.86-.14-3.86,5.86,0,6Z" transform="translate(-21.65 -18.59)"/><path class="cls-1" d="M35.28,67.35a23.74,23.74,0,0,1,3-8.26l-5.48-2.31a29,29,0,0,1-5.66,12.61c-1.41,1.84.52,4.56,2.6,4.51C33,73.83,38.9,73.53,40.49,70c1.41-3.12-1.4-5.55-4.3-5.8a3,3,0,0,0-2.59,1.49A4.89,4.89,0,0,0,35,72.28c2.76,2.1,5.83.59,8.89.57l-.8-5.9-2.86.44c-3.37.52-2.53,6,.79,5.9l9.33-.24c3.85-.09,3.87-6.09,0-6L41,67.29l.8,5.89,2.87-.44c3.39-.52,2.51-5.92-.8-5.89-2,0-3.93,0-5.13,1.86l-2.59,1.48-.1.13-1.38-1.8.3.76.3-2.31c-.6,1-4.59.91-5.6.93l2.59,4.52a33,33,0,0,0,6.26-14c.61-3.22-3.67-5.39-5.49-2.31a27.78,27.78,0,0,0-3.57,9.69c-.64,3.77,5.14,5.4,5.78,1.59Z" transform="translate(-21.65 -18.59)"/><path class="cls-1" d="M28,75.88c3.86,0,3.87-6,0-6s-3.86,6,0,6Z" transform="translate(-21.65 -18.59)"/><path class="cls-1" d="M31.43,75.41c3.86,0,3.87-6,0-6s-3.86,6,0,6Z" transform="translate(-21.65 -18.59)"/><path class="cls-1" d="M34.91,74.76c3.87,0,3.87-6,0-6s-3.86,6,0,6Z" transform="translate(-21.65 -18.59)"/><path class="cls-1" d="M38.28,74.05c3.86,0,3.86-6,0-6s-3.87,6,0,6Z" transform="translate(-21.65 -18.59)"/><path class="cls-1" d="M129.79,46.2a23.87,23.87,0,0,1,6.38,4.48c2.76,2.71,7-1.53,4.25-4.24a29,29,0,0,0-7.6-5.42,3.07,3.07,0,0,0-4.11,1.07,3,3,0,0,0,1.08,4.11Z" transform="translate(-21.65 -18.59)"/><ellipse class="cls-2" cx="67.48" cy="42.1" rx="21.78" ry="15.24" transform="translate(-33.66 20.79) rotate(-30)"/><polygon class="cls-2" points="1.75 75.75 2.75 92.75 10.75 111.75 22.75 126.75 38.75 138.75 43.75 141.75 57.75 146.75 72.75 148.75 88.75 147.75 106.75 141.75 125.75 128.75 136.75 115.75 141.75 105.75 141.75 103.75 130.75 96.75 118.75 90.75 111.75 87.75 110.75 87.75 109.75 89.75 107.75 90.75 105.75 92.75 103.75 93.75 100.75 94.75 97.75 95.75 94.75 95.75 91.75 95.75 88.75 95.75 84.75 94.75 80.75 92.75 73.75 86.75 70.75 81.75 68.75 77.75 67.75 74.75 53.75 72.75 31.75 71.75 15.75 72.75 3.75 74.75 1.75 74.75 1.75 75.75"/><path class="cls-3" d="M23.4,94.34l1-1,17-2,6-1s14,94,105,52l-12,11-24,12-26,2-15-3-17-8-15-12-11-16-7-15-2-13Z" transform="translate(-21.65 -18.59)"/><polygon class="cls-4" points="3.75 57.75 13.75 55.75 25.75 54.75 38.75 53.75 46.75 53.75 56.75 54.75 67.75 55.75 70.75 55.75 72.75 55.75 75.75 51.75 81.75 47.75 87.75 45.75 91.75 44.75 96.75 45.75 101.75 46.75 104.75 47.75 108.75 49.75 111.75 52.75 114.75 55.75 115.75 58.75 117.75 61.75 117.75 64.75 118.75 69.75 118.75 70.75 123.75 72.75 128.75 75.75 139.75 82.75 146.75 87.75 144.75 97.75 143.75 102.75 142.75 104.75 135.75 99.75 130.75 96.75 121.75 91.75 114.75 88.75 111.75 87.75 110.75 87.75 107.75 90.75 101.75 94.75 94.75 95.75 88.75 95.75 82.75 93.75 78.75 90.75 75.75 88.75 73.75 86.75 72.75 84.75 70.75 81.75 69.75 78.75 68.75 75.75 66.75 74.75 60.75 73.75 52.75 72.75 42.75 71.75 31.75 71.75 19.75 72.75 8.75 73.75 1.75 74.75 1.75 70.75 1.75 61.75 3.75 57.75"/><path class="cls-5" d="M31.4,75.34s-4,12,9,16l-17,2-1-6,2-8,1-3Z" transform="translate(-21.65 -18.59)"/><circle class="cls-2" cx="94.25" cy="70.25" r="16.5"/><circle class="cls-6" cx="75" cy="75" r="73.75"/><circle class="cls-7" cx="94" cy="70" r="12.25"/><circle class="cls-8" cx="94.25" cy="70.25" r="17"/><path class="cls-8" d="M168.9,106.84a179.06,179.06,0,0,0-29-18c1-18-15-23-15-23-20-8-31,9-31,9-39-6-69,1.5-69,1.5" transform="translate(-21.65 -18.59)"/><path class="cls-8" d="M22.9,93.84s34-8,67,0c0,0,3,16,19,20s24-8,24-8a155.59,155.59,0,0,1,31.35,17.26" transform="translate(-21.65 -18.59)"/></svg>